<?xml version="1.0" encoding="UTF-8"?>
<svg id="Calque_2" data-name="Calque 2" xmlns="http://www.w3.org/2000/svg" viewBox="0 0 130.66 130.66">
  <defs>
    <style>
      .cls-1 {
        fill: #5b7876;
      }

      .cls-1, .cls-2 {
        stroke-width: 0px;
      }

      .cls-2 {
        fill: #fff;
      }
    </style>
  </defs>
  <g id="petit_logo">
    <g id="logo">
      <g id="Icon">
        <circle class="cls-1" cx="65.33" cy="65.33" r="65.33"/>
      </g>
    </g>
  </g>
  <g id="Calque_8" data-name="Calque 8">
    <path class="cls-2" d="M99.72,75.59l.02-.16,15.86-9.32-17.83-10.48c-7.51-4.42-13.97-10.38-19-17.45.67-2.62,1.83-5.08,3.44-7.25h0s-.12.03-.12.03c-2.44.55-4.93.79-7.42.76l-9.33-15.89-10.48,17.83c-4.39,7.47-10.31,13.89-17.33,18.91-2.4-.99-4.66-2.27-6.75-3.81l-.1-.08c.61,2.66.68,5.42.21,8.11l-15.82,9.3,17.83,10.48c7.38,4.34,13.74,10.17,18.73,17.08-.9,2.55-2.29,4.91-4.1,6.92l.13-.02c2.69-.35,5.42-.35,8.11,0l.28.04,9.29,15.78,10.48-17.83c4.35-7.4,10.21-13.78,17.14-18.78,2.51.9,4.82,2.27,6.81,4.05l-.02-.13c-.35-2.69-.36-5.42-.02-8.11ZM92.89,75.26c-7.57,4.45-13.91,10.79-18.36,18.36l-9.14,15.56-9.14-15.56c-4.45-7.57-10.79-13.91-18.36-18.36l-15.56-9.14,15.56-9.14c7.57-4.45,13.92-10.79,18.36-18.36l9.14-15.56,9.14,15.56c4.45,7.57,10.79,13.92,18.36,18.36l15.56,9.14-15.56,9.14Z"/>
    <path class="cls-2" d="M92.51,57.62c-7.67-4.51-14.12-10.95-18.63-18.63l-8.5-14.46-8.5,14.46c-4.51,7.68-10.95,14.12-18.63,18.63l-14.46,8.5,14.46,8.5c7.67,4.51,14.12,10.95,18.63,18.63l8.5,14.46,8.5-14.46c4.51-7.68,10.95-14.12,18.63-18.63l14.46-8.5-14.46-8.5ZM84.76,74.09c-6.7,3.39-9.94,1.39-10.99.43h0c.97,1.1,2.89,4.34-.46,10.98-4.26,8.43-6.29,8.93-7.91,16.7-1.62-7.76-3.65-8.26-7.91-16.68-3.3-6.52-1.49-9.77-.51-10.91-1.15.99-4.4,2.76-10.9-.52-8.43-4.26-8.93-6.29-16.7-7.91,7.76-1.62,8.26-3.65,16.68-7.91,6.42-3.24,9.66-1.55,10.85-.56h0c-1-1.22-2.65-4.48.58-10.85,4.26-8.43,6.29-8.93,7.91-16.7,1.62,7.76,3.65,8.26,7.91,16.68,3.35,6.63,1.43,9.87.46,10.96h0c1.08-.96,4.33-2.89,10.98.47,8.43,4.26,8.93,6.29,16.7,7.91-7.76,1.62-8.26,3.65-16.68,7.91Z"/>
  </g>
</svg>